<mxfile host="app.diagrams.net" modified="2023-07-31T07:58:55.691Z" agent="Mozilla/5.0 (Windows NT 10.0; Win64; x64) AppleWebKit/537.36 (KHTML, like Gecko) Chrome/114.0.0.0 Safari/537.36 Edg/114.0.1823.55" etag="N1TT9-JrBwxCk4zprAXT" version="21.6.6" type="google">
  <diagram id="prtHgNgQTEPvFCAcTncT" name="Page-1">
    <mxGraphModel grid="1" page="1" gridSize="10" guides="1" tooltips="1" connect="1" arrows="1" fold="1" pageScale="1" pageWidth="827" pageHeight="1169" math="0" shadow="0">
      <root>
        <mxCell id="0" />
        <mxCell id="1" parent="0" />
        <mxCell id="dNxyNK7c78bLwvsdeMH5-19" value="Pool" style="swimlane;html=1;childLayout=stackLayout;resizeParent=1;resizeParentMax=0;horizontal=0;startSize=20;horizontalStack=0;" vertex="1" parent="1">
          <mxGeometry x="70" y="70" width="1030" height="1010" as="geometry" />
        </mxCell>
        <mxCell id="dNxyNK7c78bLwvsdeMH5-20" value="Customer Offline" style="swimlane;html=1;startSize=20;horizontal=0;" vertex="1" parent="dNxyNK7c78bLwvsdeMH5-19">
          <mxGeometry x="20" width="1010" height="190" as="geometry" />
        </mxCell>
        <mxCell id="dNxyNK7c78bLwvsdeMH5-24" value="Register at www.jpsclub.com" style="rounded=0;whiteSpace=wrap;html=1;fontFamily=Helvetica;fontSize=12;fontColor=#000000;align=center;" vertex="1" parent="dNxyNK7c78bLwvsdeMH5-20">
          <mxGeometry x="130" y="30" width="101" height="60" as="geometry" />
        </mxCell>
        <mxCell id="I2LRHGrfmbu-V9laywg8-2" value="Capilliary" style="shape=cylinder3;whiteSpace=wrap;html=1;boundedLbl=1;backgroundOutline=1;size=15;" vertex="1" parent="dNxyNK7c78bLwvsdeMH5-20">
          <mxGeometry x="281" y="20" width="60" height="80" as="geometry" />
        </mxCell>
        <mxCell id="I2LRHGrfmbu-V9laywg8-16" value="" style="endArrow=none;dashed=1;html=1;dashPattern=1 3;strokeWidth=2;rounded=0;exitX=0;exitY=0.5;exitDx=0;exitDy=0;entryX=1;entryY=0.5;entryDx=0;entryDy=0;exitPerimeter=0;startArrow=classic;startFill=1;" edge="1" parent="dNxyNK7c78bLwvsdeMH5-20" source="I2LRHGrfmbu-V9laywg8-2" target="dNxyNK7c78bLwvsdeMH5-24">
          <mxGeometry width="50" height="50" relative="1" as="geometry">
            <mxPoint x="321" y="110" as="sourcePoint" />
            <mxPoint x="321" y="150" as="targetPoint" />
          </mxGeometry>
        </mxCell>
        <mxCell id="I2LRHGrfmbu-V9laywg8-21" value="Purchase product" style="rounded=0;whiteSpace=wrap;html=1;fontFamily=Helvetica;fontSize=12;fontColor=#000000;align=center;" vertex="1" parent="dNxyNK7c78bLwvsdeMH5-20">
          <mxGeometry x="550" y="110" width="80" height="60" as="geometry" />
        </mxCell>
        <mxCell id="I2LRHGrfmbu-V9laywg8-28" value="AP21" style="shape=cylinder3;whiteSpace=wrap;html=1;boundedLbl=1;backgroundOutline=1;size=15;" vertex="1" parent="dNxyNK7c78bLwvsdeMH5-20">
          <mxGeometry x="441" y="20" width="60" height="80" as="geometry" />
        </mxCell>
        <mxCell id="I2LRHGrfmbu-V9laywg8-31" value="transaction offline data" style="endArrow=none;dashed=1;html=1;dashPattern=1 3;strokeWidth=2;rounded=0;startArrow=classic;startFill=1;entryX=0.5;entryY=0;entryDx=0;entryDy=0;exitX=1;exitY=0.5;exitDx=0;exitDy=0;exitPerimeter=0;" edge="1" parent="dNxyNK7c78bLwvsdeMH5-20" source="I2LRHGrfmbu-V9laywg8-28" target="I2LRHGrfmbu-V9laywg8-21">
          <mxGeometry x="0.645" width="50" height="50" relative="1" as="geometry">
            <mxPoint x="531" y="60" as="sourcePoint" />
            <mxPoint x="511" y="60" as="targetPoint" />
            <Array as="points">
              <mxPoint x="590" y="60" />
            </Array>
            <mxPoint as="offset" />
          </mxGeometry>
        </mxCell>
        <mxCell id="I2LRHGrfmbu-V9laywg8-43" style="edgeStyle=orthogonalEdgeStyle;rounded=0;orthogonalLoop=1;jettySize=auto;html=1;entryX=0;entryY=0.5;entryDx=0;entryDy=0;" edge="1" parent="dNxyNK7c78bLwvsdeMH5-20" source="I2LRHGrfmbu-V9laywg8-42" target="dNxyNK7c78bLwvsdeMH5-24">
          <mxGeometry relative="1" as="geometry" />
        </mxCell>
        <mxCell id="I2LRHGrfmbu-V9laywg8-42" value="start" style="strokeWidth=2;html=1;shape=mxgraph.flowchart.terminator;whiteSpace=wrap;" vertex="1" parent="dNxyNK7c78bLwvsdeMH5-20">
          <mxGeometry x="40" y="40" width="60" height="40" as="geometry" />
        </mxCell>
        <mxCell id="I2LRHGrfmbu-V9laywg8-47" value="1" style="ellipse;whiteSpace=wrap;html=1;aspect=fixed;" vertex="1" parent="dNxyNK7c78bLwvsdeMH5-20">
          <mxGeometry x="211" y="20" width="30" height="30" as="geometry" />
        </mxCell>
        <mxCell id="I2LRHGrfmbu-V9laywg8-48" value="2" style="ellipse;whiteSpace=wrap;html=1;aspect=fixed;" vertex="1" parent="dNxyNK7c78bLwvsdeMH5-20">
          <mxGeometry x="611" y="100" width="30" height="30" as="geometry" />
        </mxCell>
        <mxCell id="I2LRHGrfmbu-V9laywg8-60" value="3" style="ellipse;whiteSpace=wrap;html=1;aspect=fixed;" vertex="1" parent="dNxyNK7c78bLwvsdeMH5-20">
          <mxGeometry x="375" y="20" width="30" height="30" as="geometry" />
        </mxCell>
        <mxCell id="I2LRHGrfmbu-V9laywg8-65" value="" style="endArrow=none;dashed=1;html=1;dashPattern=1 3;strokeWidth=2;rounded=0;exitX=1;exitY=0.5;exitDx=0;exitDy=0;entryX=0;entryY=0;entryDx=0;entryDy=15;startArrow=classic;startFill=1;entryPerimeter=0;" edge="1" parent="dNxyNK7c78bLwvsdeMH5-20" source="I2LRHGrfmbu-V9laywg8-60" target="I2LRHGrfmbu-V9laywg8-28">
          <mxGeometry width="50" height="50" relative="1" as="geometry">
            <mxPoint x="291" y="260" as="sourcePoint" />
            <mxPoint x="241" y="260" as="targetPoint" />
          </mxGeometry>
        </mxCell>
        <mxCell id="I2LRHGrfmbu-V9laywg8-66" value="" style="endArrow=none;dashed=1;html=1;dashPattern=1 3;strokeWidth=2;rounded=0;exitX=0;exitY=0.5;exitDx=0;exitDy=0;entryX=1;entryY=0;entryDx=0;entryDy=15;startArrow=classic;startFill=1;entryPerimeter=0;" edge="1" parent="dNxyNK7c78bLwvsdeMH5-20" source="I2LRHGrfmbu-V9laywg8-60" target="I2LRHGrfmbu-V9laywg8-2">
          <mxGeometry width="50" height="50" relative="1" as="geometry">
            <mxPoint x="404.4999999999916" y="45" as="sourcePoint" />
            <mxPoint x="423" y="45" as="targetPoint" />
          </mxGeometry>
        </mxCell>
        <mxCell id="dNxyNK7c78bLwvsdeMH5-21" value="Customer Online" style="swimlane;html=1;startSize=20;horizontal=0;" vertex="1" parent="dNxyNK7c78bLwvsdeMH5-19">
          <mxGeometry x="20" y="190" width="1010" height="250" as="geometry" />
        </mxCell>
        <mxCell id="I2LRHGrfmbu-V9laywg8-35" style="edgeStyle=orthogonalEdgeStyle;rounded=0;orthogonalLoop=1;jettySize=auto;html=1;entryX=0;entryY=0.5;entryDx=0;entryDy=0;" edge="1" parent="dNxyNK7c78bLwvsdeMH5-21" source="dNxyNK7c78bLwvsdeMH5-26" target="I2LRHGrfmbu-V9laywg8-6">
          <mxGeometry relative="1" as="geometry">
            <Array as="points">
              <mxPoint x="191" y="170" />
            </Array>
          </mxGeometry>
        </mxCell>
        <mxCell id="dNxyNK7c78bLwvsdeMH5-26" value="Register at&amp;nbsp; brands website&amp;nbsp;" style="rounded=0;whiteSpace=wrap;html=1;fontFamily=Helvetica;fontSize=12;fontColor=#000000;align=center;" vertex="1" parent="dNxyNK7c78bLwvsdeMH5-21">
          <mxGeometry x="151" y="30" width="80" height="60" as="geometry" />
        </mxCell>
        <mxCell id="I2LRHGrfmbu-V9laywg8-8" value="Magento" style="shape=cylinder3;whiteSpace=wrap;html=1;boundedLbl=1;backgroundOutline=1;size=15;" vertex="1" parent="dNxyNK7c78bLwvsdeMH5-21">
          <mxGeometry x="281" y="20" width="60" height="80" as="geometry" />
        </mxCell>
        <mxCell id="I2LRHGrfmbu-V9laywg8-17" value="" style="endArrow=none;dashed=1;html=1;dashPattern=1 3;strokeWidth=2;rounded=0;exitX=0;exitY=0.5;exitDx=0;exitDy=0;entryX=1;entryY=0.5;entryDx=0;entryDy=0;exitPerimeter=0;startArrow=classic;startFill=1;" edge="1" parent="dNxyNK7c78bLwvsdeMH5-21" source="I2LRHGrfmbu-V9laywg8-8" target="dNxyNK7c78bLwvsdeMH5-26">
          <mxGeometry width="50" height="50" relative="1" as="geometry">
            <mxPoint x="291" y="-50" as="sourcePoint" />
            <mxPoint x="241" y="-50" as="targetPoint" />
          </mxGeometry>
        </mxCell>
        <mxCell id="I2LRHGrfmbu-V9laywg8-6" value="Link member" style="rounded=0;whiteSpace=wrap;html=1;fontFamily=Helvetica;fontSize=12;fontColor=#000000;align=center;" vertex="1" parent="dNxyNK7c78bLwvsdeMH5-21">
          <mxGeometry x="271" y="140" width="80" height="60" as="geometry" />
        </mxCell>
        <mxCell id="I2LRHGrfmbu-V9laywg8-22" value="Purchase product" style="rounded=0;whiteSpace=wrap;html=1;fontFamily=Helvetica;fontSize=12;fontColor=#000000;align=center;" vertex="1" parent="dNxyNK7c78bLwvsdeMH5-21">
          <mxGeometry x="551" y="30" width="80" height="60" as="geometry" />
        </mxCell>
        <mxCell id="I2LRHGrfmbu-V9laywg8-36" value="" style="endArrow=none;dashed=1;html=1;dashPattern=1 3;strokeWidth=2;rounded=0;exitX=0.5;exitY=1;exitDx=0;exitDy=0;entryX=0.5;entryY=0;entryDx=0;entryDy=0;exitPerimeter=0;startArrow=classic;startFill=1;" edge="1" parent="dNxyNK7c78bLwvsdeMH5-21" source="I2LRHGrfmbu-V9laywg8-8" target="I2LRHGrfmbu-V9laywg8-6">
          <mxGeometry width="50" height="50" relative="1" as="geometry">
            <mxPoint x="291" y="70" as="sourcePoint" />
            <mxPoint x="241" y="70" as="targetPoint" />
          </mxGeometry>
        </mxCell>
        <mxCell id="I2LRHGrfmbu-V9laywg8-39" value="" style="endArrow=none;dashed=1;html=1;dashPattern=1 3;strokeWidth=2;rounded=0;entryX=0.5;entryY=1;entryDx=0;entryDy=0;startArrow=classic;startFill=1;exitX=0.833;exitY=1;exitDx=0;exitDy=0;exitPerimeter=0;" edge="1" parent="dNxyNK7c78bLwvsdeMH5-21" source="I2LRHGrfmbu-V9laywg8-8" target="I2LRHGrfmbu-V9laywg8-22">
          <mxGeometry width="50" height="50" relative="1" as="geometry">
            <mxPoint x="351" y="110" as="sourcePoint" />
            <mxPoint x="600.9999999999998" y="-50" as="targetPoint" />
            <Array as="points">
              <mxPoint x="390" y="120" />
              <mxPoint x="551" y="120" />
            </Array>
          </mxGeometry>
        </mxCell>
        <UserObject label="" tooltip="Customer online data" id="I2LRHGrfmbu-V9laywg8-12">
          <mxCell style="endArrow=none;dashed=1;html=1;dashPattern=1 3;strokeWidth=2;rounded=0;exitX=0.5;exitY=1;exitDx=0;exitDy=0;entryX=0.5;entryY=0;entryDx=0;entryDy=0;entryPerimeter=0;exitPerimeter=0;startArrow=classic;startFill=1;" edge="1" parent="dNxyNK7c78bLwvsdeMH5-19" source="I2LRHGrfmbu-V9laywg8-2" target="I2LRHGrfmbu-V9laywg8-8">
            <mxGeometry width="50" height="50" relative="1" as="geometry">
              <mxPoint x="230" y="190" as="sourcePoint" />
              <mxPoint x="280" y="190" as="targetPoint" />
              <Array as="points" />
            </mxGeometry>
          </mxCell>
        </UserObject>
        <mxCell id="I2LRHGrfmbu-V9laywg8-52" value="customer online data" style="edgeLabel;html=1;align=center;verticalAlign=middle;resizable=0;points=[];" connectable="0" vertex="1" parent="I2LRHGrfmbu-V9laywg8-12">
          <mxGeometry x="-0.3147" relative="1" as="geometry">
            <mxPoint as="offset" />
          </mxGeometry>
        </mxCell>
        <mxCell id="I2LRHGrfmbu-V9laywg8-37" value="" style="endArrow=none;dashed=1;html=1;dashPattern=1 3;strokeWidth=2;rounded=0;exitX=1.031;exitY=0.577;exitDx=0;exitDy=0;entryX=1.013;entryY=0.603;entryDx=0;entryDy=0;exitPerimeter=0;startArrow=classic;startFill=1;entryPerimeter=0;" edge="1" parent="dNxyNK7c78bLwvsdeMH5-19" source="I2LRHGrfmbu-V9laywg8-2" target="I2LRHGrfmbu-V9laywg8-6">
          <mxGeometry width="50" height="50" relative="1" as="geometry">
            <mxPoint x="290" y="200" as="sourcePoint" />
            <mxPoint x="240" y="200" as="targetPoint" />
            <Array as="points">
              <mxPoint x="400" y="66" />
              <mxPoint x="400" y="296" />
            </Array>
          </mxGeometry>
        </mxCell>
        <mxCell id="I2LRHGrfmbu-V9laywg8-49" style="edgeStyle=orthogonalEdgeStyle;rounded=0;orthogonalLoop=1;jettySize=auto;html=1;" edge="1" parent="dNxyNK7c78bLwvsdeMH5-19" source="dNxyNK7c78bLwvsdeMH5-24" target="dNxyNK7c78bLwvsdeMH5-26">
          <mxGeometry relative="1" as="geometry" />
        </mxCell>
        <mxCell id="I2LRHGrfmbu-V9laywg8-50" value="" style="endArrow=none;dashed=1;html=1;dashPattern=1 3;strokeWidth=2;rounded=0;exitX=0.5;exitY=1;exitDx=0;exitDy=0;entryX=0.954;entryY=0.106;entryDx=0;entryDy=0;entryPerimeter=0;exitPerimeter=0;startArrow=classic;startFill=1;" edge="1" parent="dNxyNK7c78bLwvsdeMH5-19" source="I2LRHGrfmbu-V9laywg8-28" target="I2LRHGrfmbu-V9laywg8-8">
          <mxGeometry width="50" height="50" relative="1" as="geometry">
            <mxPoint x="310" y="110" as="sourcePoint" />
            <mxPoint x="310" y="180" as="targetPoint" />
            <Array as="points">
              <mxPoint x="490" y="220" />
            </Array>
          </mxGeometry>
        </mxCell>
        <mxCell id="I2LRHGrfmbu-V9laywg8-53" value="transaction online data" style="edgeLabel;html=1;align=center;verticalAlign=middle;resizable=0;points=[];" connectable="0" vertex="1" parent="I2LRHGrfmbu-V9laywg8-50">
          <mxGeometry x="0.0764" y="1" relative="1" as="geometry">
            <mxPoint x="17" y="-11" as="offset" />
          </mxGeometry>
        </mxCell>
        <mxCell id="txu3bze8xMBRFjap1Rcd-2" value="CRM Data Analytics" style="swimlane;html=1;startSize=20;horizontal=0;" vertex="1" parent="dNxyNK7c78bLwvsdeMH5-19">
          <mxGeometry x="20" y="440" width="1010" height="450" as="geometry" />
        </mxCell>
        <mxCell id="I2LRHGrfmbu-V9laywg8-54" value="CRM &lt;br&gt;Datamart" style="shape=cylinder3;whiteSpace=wrap;html=1;boundedLbl=1;backgroundOutline=1;size=15;" vertex="1" parent="txu3bze8xMBRFjap1Rcd-2">
          <mxGeometry x="403" y="19" width="60" height="80" as="geometry" />
        </mxCell>
        <mxCell id="I2LRHGrfmbu-V9laywg8-67" value="3" style="ellipse;whiteSpace=wrap;html=1;aspect=fixed;" vertex="1" parent="txu3bze8xMBRFjap1Rcd-2">
          <mxGeometry x="703" y="45" width="30" height="30" as="geometry" />
        </mxCell>
        <mxCell id="I2LRHGrfmbu-V9laywg8-82" style="edgeStyle=orthogonalEdgeStyle;rounded=0;orthogonalLoop=1;jettySize=auto;html=1;entryX=0;entryY=0.5;entryDx=0;entryDy=0;entryPerimeter=0;exitX=1;exitY=0.5;exitDx=0;exitDy=0;" edge="1" parent="txu3bze8xMBRFjap1Rcd-2" source="F4H3lQsCEJgT67h6Z9UC-1" target="I2LRHGrfmbu-V9laywg8-54">
          <mxGeometry relative="1" as="geometry">
            <mxPoint x="333" y="59" as="sourcePoint" />
          </mxGeometry>
        </mxCell>
        <mxCell id="I2LRHGrfmbu-V9laywg8-93" style="edgeStyle=orthogonalEdgeStyle;rounded=0;orthogonalLoop=1;jettySize=auto;html=1;entryX=0.5;entryY=1;entryDx=0;entryDy=0;exitX=0.5;exitY=0;exitDx=0;exitDy=0;" edge="1" parent="txu3bze8xMBRFjap1Rcd-2" source="I2LRHGrfmbu-V9laywg8-104" target="F4H3lQsCEJgT67h6Z9UC-1">
          <mxGeometry relative="1" as="geometry">
            <mxPoint x="293" y="160" as="sourcePoint" />
            <mxPoint x="293" y="89" as="targetPoint" />
          </mxGeometry>
        </mxCell>
        <mxCell id="I2LRHGrfmbu-V9laywg8-104" value="Update cutoff percentile SQL query" style="rounded=0;whiteSpace=wrap;html=1;fontFamily=Helvetica;fontSize=12;fontColor=#000000;align=center;" vertex="1" parent="txu3bze8xMBRFjap1Rcd-2">
          <mxGeometry x="253" y="140" width="80" height="60" as="geometry" />
        </mxCell>
        <mxCell id="ZhfgOTAusZBI8E9WDBMr-3" style="edgeStyle=orthogonalEdgeStyle;rounded=0;orthogonalLoop=1;jettySize=auto;html=1;entryX=0;entryY=0.5;entryDx=0;entryDy=0;" edge="1" parent="txu3bze8xMBRFjap1Rcd-2" source="I2LRHGrfmbu-V9laywg8-135" target="I2LRHGrfmbu-V9laywg8-137">
          <mxGeometry relative="1" as="geometry" />
        </mxCell>
        <mxCell id="ZhfgOTAusZBI8E9WDBMr-5" value="data processing on&amp;nbsp;&lt;br&gt;&amp;nbsp;#Temp_Member_matrix" style="edgeLabel;html=1;align=center;verticalAlign=middle;resizable=0;points=[];" vertex="1" connectable="0" parent="ZhfgOTAusZBI8E9WDBMr-3">
          <mxGeometry x="-0.0414" relative="1" as="geometry">
            <mxPoint x="5" as="offset" />
          </mxGeometry>
        </mxCell>
        <mxCell id="I2LRHGrfmbu-V9laywg8-135" value="Import to Power BI" style="rounded=0;whiteSpace=wrap;html=1;fontFamily=Helvetica;fontSize=12;fontColor=#000000;align=center;" vertex="1" parent="txu3bze8xMBRFjap1Rcd-2">
          <mxGeometry x="533" y="160" width="80" height="60" as="geometry" />
        </mxCell>
        <mxCell id="F4H3lQsCEJgT67h6Z9UC-5" style="edgeStyle=orthogonalEdgeStyle;rounded=0;orthogonalLoop=1;jettySize=auto;html=1;entryX=1;entryY=0.5;entryDx=0;entryDy=0;" edge="1" parent="txu3bze8xMBRFjap1Rcd-2" source="I2LRHGrfmbu-V9laywg8-137" target="F4H3lQsCEJgT67h6Z9UC-3">
          <mxGeometry relative="1" as="geometry">
            <Array as="points">
              <mxPoint x="900" y="280" />
            </Array>
          </mxGeometry>
        </mxCell>
        <mxCell id="I2LRHGrfmbu-V9laywg8-137" value="Generate RFM report" style="rounded=0;whiteSpace=wrap;html=1;fontFamily=Helvetica;fontSize=12;fontColor=#000000;align=center;" vertex="1" parent="txu3bze8xMBRFjap1Rcd-2">
          <mxGeometry x="860" y="160" width="80" height="60" as="geometry" />
        </mxCell>
        <mxCell id="I2LRHGrfmbu-V9laywg8-143" value="Submit/present RFM report to BU" style="rounded=0;whiteSpace=wrap;html=1;fontFamily=Helvetica;fontSize=12;fontColor=#000000;align=center;" vertex="1" parent="txu3bze8xMBRFjap1Rcd-2">
          <mxGeometry x="531.5" y="360" width="103" height="60" as="geometry" />
        </mxCell>
        <mxCell id="ZhfgOTAusZBI8E9WDBMr-2" style="edgeStyle=orthogonalEdgeStyle;rounded=0;orthogonalLoop=1;jettySize=auto;html=1;entryX=0;entryY=0.5;entryDx=0;entryDy=0;" edge="1" parent="txu3bze8xMBRFjap1Rcd-2" source="I2LRHGrfmbu-V9laywg8-154" target="I2LRHGrfmbu-V9laywg8-135">
          <mxGeometry relative="1" as="geometry" />
        </mxCell>
        <mxCell id="I2LRHGrfmbu-V9laywg8-154" value="Local database" style="shape=cylinder3;whiteSpace=wrap;html=1;boundedLbl=1;backgroundOutline=1;size=15;" vertex="1" parent="txu3bze8xMBRFjap1Rcd-2">
          <mxGeometry x="403" y="150" width="60" height="80" as="geometry" />
        </mxCell>
        <mxCell id="I2LRHGrfmbu-V9laywg8-156" value="" style="endArrow=none;dashed=1;html=1;dashPattern=1 3;strokeWidth=2;rounded=0;exitX=0.5;exitY=0;exitDx=0;exitDy=0;startArrow=classic;startFill=1;entryX=0.5;entryY=1;entryDx=0;entryDy=0;entryPerimeter=0;exitPerimeter=0;" edge="1" parent="txu3bze8xMBRFjap1Rcd-2" source="I2LRHGrfmbu-V9laywg8-154" target="I2LRHGrfmbu-V9laywg8-54">
          <mxGeometry width="50" height="50" relative="1" as="geometry">
            <mxPoint x="538" y="109" as="sourcePoint" />
            <mxPoint x="443" y="109" as="targetPoint" />
          </mxGeometry>
        </mxCell>
        <mxCell id="Wo771-IQa0ITbclG6gHf-3" value="selected data" style="edgeLabel;html=1;align=center;verticalAlign=middle;resizable=0;points=[];" connectable="0" vertex="1" parent="I2LRHGrfmbu-V9laywg8-156">
          <mxGeometry x="0.3828" y="-1" relative="1" as="geometry">
            <mxPoint as="offset" />
          </mxGeometry>
        </mxCell>
        <mxCell id="N7Jzxhkyxzy12jw6IWLV-2" style="edgeStyle=orthogonalEdgeStyle;rounded=0;orthogonalLoop=1;jettySize=auto;html=1;entryX=0.5;entryY=1;entryDx=0;entryDy=0;" edge="1" parent="txu3bze8xMBRFjap1Rcd-2" source="N7Jzxhkyxzy12jw6IWLV-1" target="I2LRHGrfmbu-V9laywg8-104">
          <mxGeometry relative="1" as="geometry" />
        </mxCell>
        <mxCell id="F4H3lQsCEJgT67h6Z9UC-4" style="edgeStyle=orthogonalEdgeStyle;rounded=0;orthogonalLoop=1;jettySize=auto;html=1;entryX=0;entryY=0.5;entryDx=0;entryDy=0;" edge="1" parent="txu3bze8xMBRFjap1Rcd-2" source="N7Jzxhkyxzy12jw6IWLV-1" target="F4H3lQsCEJgT67h6Z9UC-3">
          <mxGeometry relative="1" as="geometry" />
        </mxCell>
        <mxCell id="N7Jzxhkyxzy12jw6IWLV-1" value="Visualize on PowerBI" style="rounded=0;whiteSpace=wrap;html=1;fontFamily=Helvetica;fontSize=12;fontColor=#000000;align=center;" vertex="1" parent="txu3bze8xMBRFjap1Rcd-2">
          <mxGeometry x="253" y="250" width="80" height="60" as="geometry" />
        </mxCell>
        <mxCell id="N7Jzxhkyxzy12jw6IWLV-4" value="Run RFM_first_stage.sql query" style="rounded=0;whiteSpace=wrap;html=1;fontFamily=Helvetica;fontSize=12;fontColor=#000000;align=center;" vertex="1" parent="txu3bze8xMBRFjap1Rcd-2">
          <mxGeometry x="50" y="30" width="120" height="60" as="geometry" />
        </mxCell>
        <mxCell id="F4H3lQsCEJgT67h6Z9UC-2" style="edgeStyle=orthogonalEdgeStyle;rounded=0;orthogonalLoop=1;jettySize=auto;html=1;entryX=0;entryY=0.5;entryDx=0;entryDy=0;" edge="1" parent="txu3bze8xMBRFjap1Rcd-2" source="N7Jzxhkyxzy12jw6IWLV-5" target="N7Jzxhkyxzy12jw6IWLV-6">
          <mxGeometry relative="1" as="geometry" />
        </mxCell>
        <mxCell id="N7Jzxhkyxzy12jw6IWLV-5" value="Run&amp;nbsp;data_preparation.ipynb for data transformation" style="rounded=0;whiteSpace=wrap;html=1;fontFamily=Helvetica;fontSize=12;fontColor=#000000;align=center;" vertex="1" parent="txu3bze8xMBRFjap1Rcd-2">
          <mxGeometry x="32.5" y="380" width="155" height="60" as="geometry" />
        </mxCell>
        <mxCell id="N7Jzxhkyxzy12jw6IWLV-7" style="edgeStyle=orthogonalEdgeStyle;rounded=0;orthogonalLoop=1;jettySize=auto;html=1;entryX=0.5;entryY=1;entryDx=0;entryDy=0;" edge="1" parent="txu3bze8xMBRFjap1Rcd-2" source="N7Jzxhkyxzy12jw6IWLV-6" target="N7Jzxhkyxzy12jw6IWLV-1">
          <mxGeometry relative="1" as="geometry" />
        </mxCell>
        <mxCell id="N7Jzxhkyxzy12jw6IWLV-6" value="Additional csv files" style="rounded=0;whiteSpace=wrap;html=1;fontFamily=Helvetica;fontSize=12;fontColor=#000000;align=center;" vertex="1" parent="txu3bze8xMBRFjap1Rcd-2">
          <mxGeometry x="253" y="380" width="80" height="60" as="geometry" />
        </mxCell>
        <mxCell id="F4H3lQsCEJgT67h6Z9UC-8" style="edgeStyle=orthogonalEdgeStyle;rounded=0;orthogonalLoop=1;jettySize=auto;html=1;entryX=0.5;entryY=0;entryDx=0;entryDy=0;" edge="1" parent="txu3bze8xMBRFjap1Rcd-2" source="7Da25dAc_RjJ31qn8Scs-1" target="N7Jzxhkyxzy12jw6IWLV-5">
          <mxGeometry relative="1" as="geometry" />
        </mxCell>
        <mxCell id="7Da25dAc_RjJ31qn8Scs-1" value="Local database" style="shape=cylinder3;whiteSpace=wrap;html=1;boundedLbl=1;backgroundOutline=1;size=15;" vertex="1" parent="txu3bze8xMBRFjap1Rcd-2">
          <mxGeometry x="80" y="250" width="60" height="80" as="geometry" />
        </mxCell>
        <mxCell id="7Da25dAc_RjJ31qn8Scs-5" value="" style="edgeStyle=orthogonalEdgeStyle;rounded=0;orthogonalLoop=1;jettySize=auto;html=1;" edge="1" parent="txu3bze8xMBRFjap1Rcd-2" source="N7Jzxhkyxzy12jw6IWLV-4" target="N7Jzxhkyxzy12jw6IWLV-10">
          <mxGeometry relative="1" as="geometry">
            <mxPoint x="200" y="580" as="sourcePoint" />
            <mxPoint x="200" y="710" as="targetPoint" />
          </mxGeometry>
        </mxCell>
        <mxCell id="N7Jzxhkyxzy12jw6IWLV-10" value="CRM &lt;br&gt;Datamart" style="shape=cylinder3;whiteSpace=wrap;html=1;boundedLbl=1;backgroundOutline=1;size=15;" vertex="1" parent="txu3bze8xMBRFjap1Rcd-2">
          <mxGeometry x="80" y="120" width="60" height="80" as="geometry" />
        </mxCell>
        <mxCell id="7Da25dAc_RjJ31qn8Scs-9" value="" style="endArrow=none;dashed=1;html=1;dashPattern=1 3;strokeWidth=2;rounded=0;exitX=0.5;exitY=0;exitDx=0;exitDy=0;startArrow=classic;startFill=1;entryX=0.5;entryY=1;entryDx=0;entryDy=0;entryPerimeter=0;exitPerimeter=0;" edge="1" parent="txu3bze8xMBRFjap1Rcd-2" source="7Da25dAc_RjJ31qn8Scs-1" target="N7Jzxhkyxzy12jw6IWLV-10">
          <mxGeometry width="50" height="50" relative="1" as="geometry">
            <mxPoint x="109.5" y="230" as="sourcePoint" />
            <mxPoint x="109.5" y="179" as="targetPoint" />
          </mxGeometry>
        </mxCell>
        <mxCell id="7Da25dAc_RjJ31qn8Scs-10" value="selected data" style="edgeLabel;html=1;align=center;verticalAlign=middle;resizable=0;points=[];" connectable="0" vertex="1" parent="7Da25dAc_RjJ31qn8Scs-9">
          <mxGeometry x="0.3828" y="-1" relative="1" as="geometry">
            <mxPoint x="-1" y="1" as="offset" />
          </mxGeometry>
        </mxCell>
        <mxCell id="F4H3lQsCEJgT67h6Z9UC-1" value="Run RFM_second_stage.sql query" style="rounded=0;whiteSpace=wrap;html=1;fontFamily=Helvetica;fontSize=12;fontColor=#000000;align=center;" vertex="1" parent="txu3bze8xMBRFjap1Rcd-2">
          <mxGeometry x="228" y="29" width="130" height="60" as="geometry" />
        </mxCell>
        <mxCell id="F4H3lQsCEJgT67h6Z9UC-6" style="edgeStyle=orthogonalEdgeStyle;rounded=0;orthogonalLoop=1;jettySize=auto;html=1;entryX=0.5;entryY=0;entryDx=0;entryDy=0;" edge="1" parent="txu3bze8xMBRFjap1Rcd-2" source="F4H3lQsCEJgT67h6Z9UC-3" target="I2LRHGrfmbu-V9laywg8-143">
          <mxGeometry relative="1" as="geometry" />
        </mxCell>
        <mxCell id="F4H3lQsCEJgT67h6Z9UC-3" value="" style="ellipse;whiteSpace=wrap;html=1;aspect=fixed;" vertex="1" parent="txu3bze8xMBRFjap1Rcd-2">
          <mxGeometry x="568" y="265" width="30" height="30" as="geometry" />
        </mxCell>
        <mxCell id="I2LRHGrfmbu-V9laywg8-59" value="Schedule job&amp;nbsp; Data integration" style="shape=process;whiteSpace=wrap;html=1;backgroundOutline=1;" vertex="1" parent="txu3bze8xMBRFjap1Rcd-2">
          <mxGeometry x="528" y="29" width="120" height="60" as="geometry" />
        </mxCell>
        <mxCell id="I2LRHGrfmbu-V9laywg8-68" value="" style="endArrow=none;dashed=1;html=1;dashPattern=1 3;strokeWidth=2;rounded=0;exitX=1;exitY=0.5;exitDx=0;exitDy=0;startArrow=classic;startFill=1;entryX=0;entryY=0.5;entryDx=0;entryDy=0;" edge="1" parent="txu3bze8xMBRFjap1Rcd-2" source="I2LRHGrfmbu-V9laywg8-59" target="I2LRHGrfmbu-V9laywg8-67">
          <mxGeometry width="50" height="50" relative="1" as="geometry">
            <mxPoint x="383" y="-230" as="sourcePoint" />
            <mxPoint x="683" y="-1" as="targetPoint" />
          </mxGeometry>
        </mxCell>
        <mxCell id="I2LRHGrfmbu-V9laywg8-69" value="" style="endArrow=none;dashed=1;html=1;dashPattern=1 3;strokeWidth=2;rounded=0;exitX=1;exitY=0.5;exitDx=0;exitDy=0;startArrow=classic;startFill=1;exitPerimeter=0;entryX=0;entryY=0.5;entryDx=0;entryDy=0;" edge="1" parent="txu3bze8xMBRFjap1Rcd-2" source="I2LRHGrfmbu-V9laywg8-54" target="I2LRHGrfmbu-V9laywg8-59">
          <mxGeometry width="50" height="50" relative="1" as="geometry">
            <mxPoint x="628.0000000000002" y="9" as="sourcePoint" />
            <mxPoint x="493" y="-20" as="targetPoint" />
          </mxGeometry>
        </mxCell>
        <mxCell id="I2LRHGrfmbu-V9laywg8-144" style="edgeStyle=orthogonalEdgeStyle;rounded=0;orthogonalLoop=1;jettySize=auto;html=1;entryX=0.5;entryY=0;entryDx=0;entryDy=0;" edge="1" parent="dNxyNK7c78bLwvsdeMH5-19" source="I2LRHGrfmbu-V9laywg8-143" target="I2LRHGrfmbu-V9laywg8-147">
          <mxGeometry relative="1" as="geometry">
            <mxPoint x="564" y="885" as="targetPoint" />
          </mxGeometry>
        </mxCell>
        <mxCell id="txu3bze8xMBRFjap1Rcd-6" value="BU" style="swimlane;html=1;startSize=20;horizontal=0;" vertex="1" parent="dNxyNK7c78bLwvsdeMH5-19">
          <mxGeometry x="20" y="890" width="1010" height="120" as="geometry" />
        </mxCell>
        <mxCell id="I2LRHGrfmbu-V9laywg8-150" style="edgeStyle=orthogonalEdgeStyle;rounded=0;orthogonalLoop=1;jettySize=auto;html=1;entryX=0;entryY=0.5;entryDx=0;entryDy=0;" edge="1" parent="txu3bze8xMBRFjap1Rcd-6" source="I2LRHGrfmbu-V9laywg8-147" target="I2LRHGrfmbu-V9laywg8-149">
          <mxGeometry relative="1" as="geometry" />
        </mxCell>
        <mxCell id="I2LRHGrfmbu-V9laywg8-147" value="Find insight and Investigate issues&lt;br&gt;&amp;nbsp;of report" style="rounded=0;whiteSpace=wrap;html=1;fontFamily=Helvetica;fontSize=12;fontColor=#000000;align=center;" vertex="1" parent="txu3bze8xMBRFjap1Rcd-6">
          <mxGeometry x="533" y="45" width="100" height="60" as="geometry" />
        </mxCell>
        <mxCell id="I2LRHGrfmbu-V9laywg8-44" value="End" style="strokeWidth=2;html=1;shape=mxgraph.flowchart.terminator;whiteSpace=wrap;" vertex="1" parent="txu3bze8xMBRFjap1Rcd-6">
          <mxGeometry x="880" y="55" width="60" height="40" as="geometry" />
        </mxCell>
        <mxCell id="I2LRHGrfmbu-V9laywg8-152" style="edgeStyle=orthogonalEdgeStyle;rounded=0;orthogonalLoop=1;jettySize=auto;html=1;entryX=0;entryY=0.5;entryDx=0;entryDy=0;entryPerimeter=0;" edge="1" parent="txu3bze8xMBRFjap1Rcd-6" source="I2LRHGrfmbu-V9laywg8-149" target="I2LRHGrfmbu-V9laywg8-44">
          <mxGeometry relative="1" as="geometry" />
        </mxCell>
        <mxCell id="I2LRHGrfmbu-V9laywg8-149" value="Find solution and implement" style="rounded=0;whiteSpace=wrap;html=1;fontFamily=Helvetica;fontSize=12;fontColor=#000000;align=center;" vertex="1" parent="txu3bze8xMBRFjap1Rcd-6">
          <mxGeometry x="710" y="45" width="80" height="60" as="geometry" />
        </mxCell>
      </root>
    </mxGraphModel>
  </diagram>
</mxfile>
